<svg aria-hidden="true" style="position: absolute; width: 0; height: 0; overflow: hidden;" version="1.1" xmlns="http://www.w3.org/2000/svg" xmlns:xlink="http://www.w3.org/1999/xlink">
<defs>
<symbol id="str" viewBox="0 0 32 32">
<path fill="#fff" style="fill: var(--color1, #fff)" d="M32.005 0l-32.005 18.003 10.228 3.787 15.776-14.789-11.999 16.189 0.009 0.003-0.012-0.003v8.815l5.736-6.692 7.268 2.691 4.999-28.004z"></path>
</symbol>
<symbol id="konv" viewBox="0 0 43 32">
<path d="M37.347-0.003h-32.011c-2.201 0-3.983 1.801-3.983 4.001l-0.019 24.009c0 2.201 1.801 4.001 4.001 4.001h32.011c2.201 0 4.001-1.801 4.001-4.001v-24.009c0-2.201-1.801-4.001-4.001-4.001zM36.546 8.501l-14.144 8.84c-0.302 0.188-0.668 0.3-1.060 0.3s-0.759-0.112-1.069-0.305l0.009 0.005-14.146-8.843c-0.504-0.301-0.836-0.843-0.836-1.463 0-0.938 0.761-1.699 1.699-1.699 0.349 0 0.673 0.105 0.943 0.286l-0.006-0.004 13.405 8.384 13.405-8.384c0.264-0.176 0.588-0.282 0.937-0.282 0.938 0 1.699 0.761 1.699 1.699 0 0.62-0.332 1.162-0.828 1.459l-0.008 0.004z"></path>
</symbol>
<symbol id="tel" viewBox="0 0 32 32">
<path d="M27.427 20.858l-4.202-0.48c-0.116-0.014-0.25-0.023-0.386-0.023-0.909 0-1.733 0.369-2.328 0.965l-3.045 3.045c-4.719-2.436-8.469-6.186-10.838-10.767l-0.065-0.139 3.064-3.057c0.596-0.596 0.965-1.419 0.965-2.328 0-0.136-0.008-0.27-0.024-0.401l0.002 0.016-0.48-4.17c-0.199-1.656-1.595-2.926-3.288-2.926-0.001 0-0.003 0-0.004 0h-2.862c-1.87-0.005-3.425 1.55-3.311 3.418 0.878 14.13 12.179 25.415 26.293 26.293 1.868 0.114 3.425-1.44 3.425-3.311v-2.863c0-0.005 0-0.010 0-0.016 0-1.682-1.266-3.068-2.898-3.257l-0.015-0.001z"></path>
</symbol>
<symbol id="men" viewBox="0 0 32 32">
<path d="M16.003 16.003c4.419 0 8.001-3.582 8.001-8.001s-3.582-8.001-8.001-8.001v0c-4.419 0-8.001 3.582-8.001 8.001s3.582 8.001 8.001 8.001v0zM16.003 20.003c-5.34 0-16.003 2.68-16.003 8.001v2c0 1.099 0.901 2 2 2h28.004c1.099 0 2-0.901 2-2v-2c0-5.321-10.663-8.001-16.003-8.001z"></path>
</symbol>
</defs>
</svg>
